<svg width="1099" height="633" viewBox="0 0 1099 633" fill="none" xmlns="http://www.w3.org/2000/svg">
<path d="M594 632C854.678 632 1066 617.897 1066 600.5C1066 583.103 854.678 569 594 569C333.322 569 122 583.103 122 600.5C122 617.897 333.322 632 594 632Z" fill="white"/>
<path d="M1000.29 0H174.967V26.257H1000.29V0Z" fill="#F2F2F2"/>
<path d="M197.053 19.5369C200.806 19.5369 203.848 16.4945 203.848 12.7415C203.848 8.98845 200.806 5.94601 197.053 5.94601C193.3 5.94601 190.257 8.98845 190.257 12.7415C190.257 16.4945 193.3 19.5369 197.053 19.5369Z" fill="#F9A826"/>
<path d="M219.138 19.5369C222.891 19.5369 225.933 16.4945 225.933 12.7415C225.933 8.98845 222.891 5.94601 219.138 5.94601C215.385 5.94601 212.342 8.98845 212.342 12.7415C212.342 16.4945 215.385 19.5369 219.138 19.5369Z" fill="#F9A826"/>
<path d="M241.223 19.5369C244.976 19.5369 248.019 16.4945 248.019 12.7415C248.019 8.98845 244.976 5.94601 241.223 5.94601C237.47 5.94601 234.428 8.98845 234.428 12.7415C234.428 16.4945 237.47 19.5369 241.223 19.5369Z" fill="#F9A826"/>
<path d="M175.552 415.277L174.967 415.779V592.903H1000.28V281.779L990.449 282.525L175.552 415.277Z" fill="#DAB410"/>
<path d="M464.999 175.641H234.529V184.934H464.999V175.641Z" fill="white"/>
<path d="M464.999 196.086H234.529V205.379H464.999V196.086Z" fill="white"/>
<path d="M312.591 216.531H234.529V225.824H312.591V216.531Z" fill="white"/>
<path d="M934.999 433.641H704.529V442.934H934.999V433.641Z" fill="#0B173D"/>
<path d="M934.999 454.086H704.529V463.379H934.999V454.086Z" fill="#0B173D"/>
<path d="M782.591 474.531H704.529V483.824H782.591V474.531Z" fill="#0B173D"/>
<path d="M561.336 584.335C566.342 584.335 570.401 580.276 570.401 575.269C570.401 570.262 566.342 566.203 561.336 566.203C556.329 566.203 552.27 570.262 552.27 575.269C552.27 580.276 556.329 584.335 561.336 584.335Z" fill="#F2F2F2"/>
<path d="M587.626 585.242C592.633 585.242 596.692 581.183 596.692 576.176C596.692 571.169 592.633 567.11 587.626 567.11C582.619 567.11 578.56 571.169 578.56 576.176C578.56 581.183 582.619 585.242 587.626 585.242Z" fill="#F2F2F2"/>
<path d="M613.917 586.148C618.924 586.148 622.983 582.089 622.983 577.082C622.983 572.075 618.924 568.017 613.917 568.017C608.91 568.017 604.851 572.075 604.851 577.082C604.851 582.089 608.91 586.148 613.917 586.148Z" fill="#F2F2F2"/>
<path d="M587.709 583.428C591.715 583.428 594.962 580.181 594.962 576.176C594.962 572.17 591.715 568.923 587.709 568.923C583.704 568.923 580.457 572.17 580.457 576.176C580.457 580.181 583.704 583.428 587.709 583.428Z" fill="#0B173D"/>
<path d="M388.591 282.014H310.529V299.824H388.591V282.014Z" fill="white"/>
<path d="M852.591 523.014H774.529V540.824H852.591V523.014Z" fill="#0B173D"/>
<path opacity="0.3" d="M350 345.014C379.823 345.014 404 320.837 404 291.014C404 261.19 379.823 237.014 350 237.014C320.177 237.014 296 261.19 296 291.014C296 320.837 320.177 345.014 350 345.014Z" fill="#F9A826"/>
<path opacity="0.3" d="M350 331.014C369.882 331.014 386 314.896 386 295.014C386 275.131 369.882 259.014 350 259.014C330.118 259.014 314 275.131 314 295.014C314 314.896 330.118 331.014 350 331.014Z" fill="#F9A826"/>
<path d="M350 316.014C363.807 316.014 375 304.821 375 291.014C375 277.207 363.807 266.014 350 266.014C336.193 266.014 325 277.207 325 291.014C325 304.821 336.193 316.014 350 316.014Z" fill="#F9A826"/>
<path opacity="0.3" d="M804.375 211.185C834.198 211.185 858.375 187.009 858.375 157.185C858.375 127.362 834.198 103.185 804.375 103.185C774.552 103.185 750.375 127.362 750.375 157.185C750.375 187.009 774.552 211.185 804.375 211.185Z" fill="#F9A826"/>
<path opacity="0.3" d="M804.375 193.185C824.257 193.185 840.375 177.067 840.375 157.185C840.375 137.303 824.257 121.185 804.375 121.185C784.493 121.185 768.375 137.303 768.375 157.185C768.375 177.067 784.493 193.185 804.375 193.185Z" fill="#F9A826"/>
<path d="M804.375 182.185C818.182 182.185 829.375 170.992 829.375 157.185C829.375 143.378 818.182 132.185 804.375 132.185C790.568 132.185 779.375 143.378 779.375 157.185C779.375 170.992 790.568 182.185 804.375 182.185Z" fill="#F9A826"/>
<path opacity="0.3" d="M814 586.014C843.823 586.014 868 561.837 868 532.014C868 502.19 843.823 478.014 814 478.014C784.177 478.014 760 502.19 760 532.014C760 561.837 784.177 586.014 814 586.014Z" fill="#F9A826"/>
<path opacity="0.3" d="M814 568.014C833.882 568.014 850 551.896 850 532.014C850 512.131 833.882 496.014 814 496.014C794.118 496.014 778 512.131 778 532.014C778 551.896 794.118 568.014 814 568.014Z" fill="#F9A826"/>
<path d="M814 557.014C827.807 557.014 839 545.821 839 532.014C839 518.207 827.807 507.014 814 507.014C800.193 507.014 789 518.207 789 532.014C789 545.821 800.193 557.014 814 557.014Z" fill="#F9A826"/>
</svg>
