<svg width="90" height="113" viewBox="0 0 90 113" fill="none" xmlns="http://www.w3.org/2000/svg">
<path fill-rule="evenodd" clip-rule="evenodd" d="M48 15C48 16.6569 46.6569 18 45 18C43.3431 18 42 16.6569 42 15C42 13.3431 43.3431 12 45 12C46.6569 12 48 13.3431 48 15Z" fill="#DAB410"/>
<path d="M45 0C36.716 0 30 6.717 30 15.002V39.998C30 48.283 36.716 55 45 55C53.284 55 60 48.283 60 39.998V15.002C60 6.717 53.284 0 45 0ZM58 39.998C58 47.167 52.168 53 45 53C37.832 53 32 47.167 32 39.998V15.002C32 7.833 37.832 2 45 2C52.168 2 58 7.833 58 15.002V39.998Z" fill="#DAB410"/>
</svg>
