<svg width="877" height="662" viewBox="0 0 877 662" fill="none" xmlns="http://www.w3.org/2000/svg">
<g clip-path="url(#clip0)">
<path d="M644.526 494.8H131.688C127.313 494.795 123.119 493.055 120.026 489.962C116.932 486.869 115.193 482.675 115.188 478.3V170.146C115.191 166.941 116.466 163.869 118.732 161.603C120.998 159.336 124.071 158.062 127.275 158.058H648.729C651.989 158.062 655.115 159.358 657.42 161.664C659.726 163.969 661.022 167.095 661.026 170.355V478.3C661.021 482.675 659.281 486.869 656.188 489.962C653.095 493.055 648.901 494.795 644.526 494.8Z" fill="#F2F2F2"/>
<path d="M147.688 478.3H628.526C632.77 478.3 636.839 476.614 639.84 473.614C642.84 470.613 644.526 466.544 644.526 462.3V200.752C644.526 196.509 642.84 192.439 639.84 189.439C636.839 186.438 632.77 184.752 628.526 184.752H147.688C143.444 184.752 139.374 186.438 136.374 189.439C133.373 192.439 131.688 196.509 131.688 200.752V462.3C131.688 466.544 133.373 470.613 136.374 473.614C139.374 476.614 143.444 478.3 147.688 478.3Z" fill="white"/>
<path d="M660.796 169.203H114.956V160.802C114.962 156.413 116.709 152.206 119.814 149.103C122.918 146 127.127 144.256 131.516 144.252H644.236C648.625 144.256 652.834 146 655.938 149.103C659.043 152.206 660.79 156.413 660.796 160.802V169.203Z" fill="#DAB410"/>
<path d="M145.051 161.036C147.417 161.036 149.335 159.118 149.335 156.752C149.335 154.387 147.417 152.469 145.051 152.469C142.686 152.469 140.768 154.387 140.768 156.752C140.768 159.118 142.686 161.036 145.051 161.036Z" fill="white"/>
<path d="M161.31 161.036C163.676 161.036 165.594 159.118 165.594 156.752C165.594 154.387 163.676 152.469 161.31 152.469C158.944 152.469 157.027 154.387 157.027 156.752C157.027 159.118 158.944 161.036 161.31 161.036Z" fill="white"/>
<path d="M177.569 161.036C179.935 161.036 181.852 159.118 181.852 156.752C181.852 154.387 179.935 152.469 177.569 152.469C175.203 152.469 173.286 154.387 173.286 156.752C173.286 159.118 175.203 161.036 177.569 161.036Z" fill="white"/>
<path d="M403.11 421.579H360.11C357.592 421.576 355.177 420.574 353.396 418.793C351.615 417.012 350.613 414.598 350.61 412.079V369.079C350.613 366.56 351.615 364.146 353.396 362.365C355.177 360.584 357.592 359.582 360.11 359.579H403.11C405.629 359.582 408.044 360.584 409.825 362.365C411.606 364.146 412.607 366.56 412.61 369.079V412.079C412.607 414.598 411.606 417.012 409.825 418.793C408.044 420.574 405.629 421.576 403.11 421.579V421.579ZM360.11 361.579C358.122 361.581 356.215 362.372 354.809 363.778C353.403 365.184 352.612 367.091 352.61 369.079V412.079C352.612 414.068 353.403 415.974 354.809 417.38C356.215 418.786 358.122 419.577 360.11 419.579H403.11C405.099 419.577 407.005 418.786 408.411 417.38C409.817 415.974 410.608 414.068 410.61 412.079V369.079C410.608 367.091 409.817 365.184 408.411 363.778C407.005 362.372 405.099 361.581 403.11 361.579H360.11Z" fill="#CCCCCC"/>
<path d="M394.61 409.579H368.61C367.815 409.578 367.052 409.262 366.49 408.699C365.927 408.137 365.611 407.374 365.61 406.579V374.579C365.611 373.784 365.927 373.021 366.49 372.459C367.052 371.896 367.815 371.58 368.61 371.579H387.45C388.133 371.58 388.796 371.813 389.329 372.241L396.489 377.995C396.84 378.275 397.123 378.631 397.317 379.036C397.511 379.441 397.611 379.884 397.61 380.333V406.579C397.609 407.374 397.293 408.137 396.731 408.699C396.168 409.262 395.406 409.578 394.61 409.579V409.579ZM368.61 373.579C368.345 373.579 368.091 373.685 367.904 373.872C367.716 374.06 367.611 374.314 367.61 374.579V406.579C367.611 406.844 367.716 407.098 367.904 407.286C368.091 407.473 368.345 407.579 368.61 407.579H394.61C394.875 407.579 395.13 407.473 395.317 407.286C395.504 407.098 395.61 406.844 395.61 406.579V380.333C395.611 380.183 395.577 380.036 395.513 379.901C395.448 379.766 395.354 379.647 395.237 379.554L388.076 373.799C387.898 373.657 387.677 373.579 387.45 373.579H368.61Z" fill="#CCCCCC"/>
<path d="M389.61 385.579H373.61C373.345 385.579 373.091 385.474 372.903 385.286C372.716 385.099 372.61 384.844 372.61 384.579C372.61 384.314 372.716 384.06 372.903 383.872C373.091 383.684 373.345 383.579 373.61 383.579H389.61C389.875 383.579 390.13 383.684 390.317 383.872C390.505 384.06 390.61 384.314 390.61 384.579C390.61 384.844 390.505 385.099 390.317 385.286C390.13 385.474 389.875 385.579 389.61 385.579Z" fill="#CCCCCC"/>
<path d="M389.61 391.579H373.61C373.345 391.579 373.091 391.474 372.903 391.286C372.716 391.099 372.61 390.844 372.61 390.579C372.61 390.314 372.716 390.06 372.903 389.872C373.091 389.684 373.345 389.579 373.61 389.579H389.61C389.875 389.579 390.13 389.684 390.317 389.872C390.505 390.06 390.61 390.314 390.61 390.579C390.61 390.844 390.505 391.099 390.317 391.286C390.13 391.474 389.875 391.579 389.61 391.579Z" fill="#CCCCCC"/>
<path d="M389.61 397.579H373.61C373.345 397.579 373.091 397.474 372.903 397.286C372.716 397.099 372.61 396.844 372.61 396.579C372.61 396.314 372.716 396.06 372.903 395.872C373.091 395.684 373.345 395.579 373.61 395.579H389.61C389.875 395.579 390.13 395.684 390.317 395.872C390.505 396.06 390.61 396.314 390.61 396.579C390.61 396.844 390.505 397.099 390.317 397.286C390.13 397.474 389.875 397.579 389.61 397.579Z" fill="#CCCCCC"/>
<path d="M505.11 421.579H462.11C459.592 421.576 457.177 420.574 455.396 418.793C453.615 417.012 452.613 414.598 452.61 412.079V369.079C452.613 366.56 453.615 364.146 455.396 362.365C457.177 360.584 459.592 359.582 462.11 359.579H505.11C507.629 359.582 510.044 360.584 511.825 362.365C513.606 364.146 514.607 366.56 514.61 369.079V412.079C514.607 414.598 513.606 417.012 511.825 418.793C510.044 420.574 507.629 421.576 505.11 421.579V421.579ZM462.11 361.579C460.122 361.581 458.215 362.372 456.809 363.778C455.403 365.184 454.612 367.091 454.61 369.079V412.079C454.612 414.068 455.403 415.974 456.809 417.38C458.215 418.786 460.122 419.577 462.11 419.579H505.11C507.099 419.577 509.005 418.786 510.411 417.38C511.817 415.974 512.608 414.068 512.61 412.079V369.079C512.608 367.091 511.817 365.184 510.411 363.778C509.005 362.372 507.099 361.581 505.11 361.579H462.11Z" fill="#CCCCCC"/>
<path d="M497.61 401.579H469.61C468.815 401.578 468.052 401.262 467.49 400.699C466.927 400.137 466.611 399.374 466.61 398.579V382.579C466.611 381.784 466.927 381.021 467.49 380.459C468.052 379.896 468.815 379.58 469.61 379.579H497.61C498.406 379.58 499.168 379.896 499.731 380.459C500.293 381.021 500.609 381.784 500.61 382.579V398.579C500.609 399.374 500.293 400.137 499.731 400.699C499.168 401.262 498.406 401.578 497.61 401.579V401.579ZM469.61 381.579C469.345 381.579 469.091 381.685 468.903 381.872C468.716 382.06 468.611 382.314 468.61 382.579V398.579C468.611 398.844 468.716 399.098 468.903 399.286C469.091 399.473 469.345 399.579 469.61 399.579H497.61C497.875 399.579 498.13 399.473 498.317 399.286C498.505 399.098 498.61 398.844 498.61 398.579V382.579C498.61 382.314 498.505 382.06 498.317 381.872C498.13 381.685 497.875 381.579 497.61 381.579H469.61Z" fill="#CCCCCC"/>
<path d="M483.61 393.217C483.048 393.218 482.498 393.061 482.02 392.765L467.08 383.427C466.856 383.286 466.696 383.062 466.637 382.804C466.578 382.546 466.623 382.275 466.764 382.05C466.904 381.825 467.128 381.665 467.386 381.606C467.644 381.546 467.916 381.591 468.141 381.731L483.081 391.068C483.24 391.167 483.424 391.219 483.611 391.219C483.798 391.219 483.981 391.167 484.141 391.068L499.08 381.731C499.305 381.591 499.576 381.546 499.834 381.606C500.092 381.665 500.316 381.825 500.457 382.05C500.597 382.275 500.643 382.546 500.583 382.804C500.524 383.062 500.365 383.286 500.141 383.427L485.201 392.765C484.724 393.061 484.172 393.218 483.61 393.217V393.217Z" fill="#CCCCCC"/>
<path d="M301.11 421.579H258.11C255.592 421.576 253.177 420.574 251.396 418.793C249.615 417.012 248.613 414.598 248.61 412.079V369.079C248.613 366.56 249.615 364.146 251.396 362.365C253.177 360.584 255.592 359.582 258.11 359.579H301.11C303.629 359.582 306.044 360.584 307.825 362.365C309.606 364.146 310.607 366.56 310.61 369.079V412.079C310.607 414.598 309.606 417.012 307.825 418.793C306.044 420.574 303.629 421.576 301.11 421.579V421.579ZM258.11 361.579C256.122 361.581 254.215 362.372 252.809 363.778C251.403 365.184 250.612 367.091 250.61 369.079V412.079C250.612 414.068 251.403 415.974 252.809 417.38C254.215 418.786 256.122 419.577 258.11 419.579H301.11C303.099 419.577 305.005 418.786 306.411 417.38C307.817 415.974 308.608 414.068 308.61 412.079V369.079C308.608 367.091 307.817 365.184 306.411 363.778C305.005 362.372 303.099 361.581 301.11 361.579H258.11Z" fill="#CCCCCC"/>
<path d="M293.61 401.579H265.61C264.815 401.578 264.052 401.262 263.49 400.699C262.927 400.137 262.611 399.374 262.61 398.579V382.579C262.611 381.784 262.927 381.021 263.49 380.459C264.052 379.896 264.815 379.58 265.61 379.579H293.61C294.406 379.58 295.168 379.896 295.731 380.459C296.293 381.021 296.609 381.784 296.61 382.579V398.579C296.609 399.374 296.293 400.137 295.731 400.699C295.168 401.262 294.406 401.578 293.61 401.579V401.579ZM265.61 381.579C265.345 381.579 265.091 381.685 264.903 381.872C264.716 382.06 264.61 382.314 264.61 382.579V398.579C264.61 398.844 264.716 399.098 264.903 399.286C265.091 399.473 265.345 399.579 265.61 399.579H293.61C293.875 399.579 294.13 399.473 294.317 399.286C294.505 399.098 294.61 398.844 294.61 398.579V382.579C294.61 382.314 294.505 382.06 294.317 381.872C294.13 381.685 293.875 381.579 293.61 381.579H265.61Z" fill="#CCCCCC"/>
<path d="M289.172 401.579H269.048C268.697 401.579 268.352 401.487 268.048 401.311C267.744 401.136 267.491 400.883 267.316 400.579C267.14 400.275 267.048 399.93 267.048 399.579C267.048 399.228 267.141 398.883 267.316 398.579L273.378 388.079C273.553 387.775 273.806 387.523 274.11 387.347C274.414 387.172 274.759 387.079 275.11 387.079C275.461 387.079 275.806 387.172 276.11 387.347C276.414 387.523 276.667 387.775 276.842 388.079L280.757 394.86L283.025 390.932C283.201 390.628 283.453 390.375 283.757 390.2C284.061 390.024 284.406 389.932 284.757 389.932C285.109 389.932 285.453 390.024 285.757 390.2C286.062 390.375 286.314 390.628 286.49 390.932L290.905 398.579C291.08 398.883 291.173 399.228 291.173 399.579C291.173 399.93 291.08 400.275 290.905 400.579C290.729 400.883 290.476 401.136 290.172 401.311C289.868 401.487 289.523 401.579 289.172 401.579H289.172ZM289.172 399.579L284.757 391.932L281.623 397.36C281.536 397.512 281.409 397.639 281.257 397.726C281.105 397.814 280.933 397.86 280.757 397.86V397.86C280.582 397.86 280.409 397.814 280.257 397.726C280.105 397.639 279.979 397.512 279.891 397.36L275.11 389.079L269.048 399.579H289.172Z" fill="#CCCCCC"/>
<path d="M290.61 387.579C291.715 387.579 292.61 386.683 292.61 385.579C292.61 384.474 291.715 383.579 290.61 383.579C289.506 383.579 288.61 384.474 288.61 385.579C288.61 386.683 289.506 387.579 290.61 387.579Z" fill="#CCCCCC"/>
<path d="M768.825 648.15L756.565 648.149L750.733 600.861L768.827 600.862L768.825 648.15Z" fill="#FFB8B8"/>
<path d="M771.951 660.034L732.421 660.032V659.532C732.421 657.512 732.819 655.511 733.592 653.644C734.365 651.778 735.499 650.081 736.927 648.653C738.356 647.224 740.052 646.09 741.919 645.317C743.786 644.544 745.787 644.146 747.807 644.146H747.808L771.952 644.147L771.951 660.034Z" fill="white"/>
<path d="M818.825 648.15L806.565 648.149L800.733 600.861L818.827 600.862L818.825 648.15Z" fill="#FFB8B8"/>
<path d="M821.951 660.034L782.421 660.032V659.532C782.421 657.512 782.819 655.511 783.592 653.644C784.365 651.778 785.499 650.081 786.927 648.653C788.356 647.224 790.052 646.09 791.919 645.317C793.786 644.544 795.787 644.146 797.807 644.146H797.808L821.952 644.147L821.951 660.034Z" fill="white"/>
<path d="M815.15 627.65L803.795 624.196C802.949 623.94 802.197 623.439 801.634 622.757C801.071 622.076 800.721 621.243 800.629 620.363L790.044 520.037C790.035 519.916 789.981 519.802 789.892 519.719C789.804 519.636 789.687 519.59 789.565 519.59C789.443 519.578 789.322 519.614 789.227 519.691C789.131 519.767 789.07 519.878 789.055 519.999L771.324 617.198C771.216 617.788 770.991 618.35 770.663 618.852C770.335 619.354 769.91 619.785 769.414 620.12C768.917 620.456 768.358 620.688 767.77 620.805C767.181 620.921 766.576 620.919 765.989 620.798L751.477 617.809C750.413 617.586 749.465 616.987 748.807 616.121C748.149 615.256 747.825 614.182 747.896 613.097L758.681 453.784L831.819 445.893L820.951 623.619C820.881 624.762 820.378 625.835 819.545 626.62C818.712 627.405 817.611 627.844 816.467 627.847C816.02 627.846 815.577 627.78 815.15 627.65V627.65Z" fill="white"/>
<path d="M815.08 315.048C828.645 315.048 839.641 304.052 839.641 290.487C839.641 276.922 828.645 265.926 815.08 265.926C801.516 265.926 790.519 276.922 790.519 290.487C790.519 304.052 801.516 315.048 815.08 315.048Z" fill="#FFB8B8"/>
<path d="M758.568 454.72L774.427 354.869C775.27 349.56 777.234 344.491 780.189 340C783.143 335.51 787.02 331.7 791.561 328.824C796.103 325.948 801.205 324.072 806.528 323.321C811.85 322.57 817.272 322.962 822.432 324.469V324.469C831.453 327.078 839.178 332.957 844.097 340.957C849.016 348.957 850.776 358.503 849.033 367.731L832.442 456.903L758.568 454.72Z" fill="#DAB410"/>
<path d="M821.861 472.586C823.088 471.776 824.122 470.706 824.891 469.453C825.66 468.2 826.144 466.794 826.311 465.333C826.477 463.873 826.322 462.393 825.855 461C825.388 459.606 824.621 458.331 823.608 457.266L840.004 425.514L821.539 427.485L808.8 457.334C807.123 459.155 806.172 461.527 806.127 464.001C806.082 466.476 806.946 468.881 808.556 470.761C810.166 472.641 812.41 473.865 814.862 474.201C817.314 474.538 819.804 473.963 821.861 472.586V472.586Z" fill="#FFB8B8"/>
<path d="M825.372 451.665C824.465 451.537 823.618 451.136 822.945 450.514L816.672 444.718C815.994 444.088 815.526 443.266 815.331 442.362C815.136 441.458 815.223 440.516 815.58 439.663L828.118 409.945L826.339 351.226C826.595 349.338 827.22 347.519 828.179 345.873C829.138 344.227 830.412 342.787 831.928 341.634C833.444 340.48 835.173 339.637 837.015 339.152C838.857 338.667 840.776 338.55 842.664 338.808C844.551 339.065 846.369 339.692 848.014 340.653C849.659 341.613 851.099 342.889 852.25 344.406C853.402 345.923 854.244 347.652 854.727 349.495C855.21 351.337 855.325 353.257 855.066 355.144L858.107 392.056C859.032 403.259 855.855 414.417 849.169 423.453L829.617 449.885C829.241 450.394 828.762 450.817 828.212 451.127C827.661 451.438 827.052 451.63 826.422 451.689C826.072 451.723 825.72 451.715 825.372 451.665V451.665Z" fill="#DAB410"/>
<path d="M673.641 277.105C673.908 278.551 674.49 279.92 675.344 281.116C676.198 282.313 677.304 283.308 678.584 284.031C679.864 284.754 681.287 285.187 682.753 285.3C684.219 285.414 685.691 285.204 687.067 284.687L709.913 312.165L715.298 294.393L692.778 271.024C691.755 268.77 689.942 266.969 687.68 265.963C685.419 264.957 682.867 264.815 680.508 265.565C678.149 266.314 676.147 267.903 674.882 270.03C673.616 272.157 673.175 274.674 673.641 277.105V277.105Z" fill="#FFB8B8"/>
<path d="M691.537 288.495C692.008 287.71 692.708 287.087 693.543 286.709L701.327 283.193C702.17 282.814 703.11 282.703 704.018 282.876C704.927 283.049 705.76 283.496 706.406 284.158L728.884 307.29L783.651 328.546C785.29 329.518 786.721 330.802 787.863 332.327C789.005 333.852 789.836 335.587 790.307 337.433C790.778 339.279 790.881 341.2 790.609 343.085C790.337 344.971 789.696 346.785 788.723 348.422C787.75 350.06 786.464 351.49 784.938 352.631C783.412 353.771 781.676 354.599 779.829 355.068C777.983 355.537 776.062 355.638 774.177 355.364C772.291 355.09 770.478 354.447 768.842 353.472L733.665 341.881C722.988 338.364 713.952 331.089 708.238 321.409L691.52 293.098C691.199 292.554 690.996 291.948 690.925 291.32C690.853 290.692 690.915 290.056 691.105 289.453C691.211 289.118 691.356 288.796 691.537 288.495V288.495Z" fill="#DAB410"/>
<path opacity="0.1" d="M835.002 375.652L834.002 407.652L815.58 439.663L830.962 403.99L835.002 375.652Z" fill="black"/>
<path d="M812.266 295.103C810.724 295.303 809.161 294.937 807.868 294.072C806.575 293.207 805.639 291.903 805.236 290.4C804.846 288.671 803.994 287.081 802.769 285.8C801.545 284.518 799.995 283.594 798.285 283.127C793.779 282.097 788.273 284.218 784.972 280.805C784.265 280.025 783.753 279.089 783.479 278.073C783.205 277.057 783.177 275.991 783.396 274.962C784.004 271.645 786.377 269.139 788.959 267.135C794.394 262.936 800.97 260.479 807.825 260.084C811.374 259.981 814.925 260.158 818.446 260.612C822.133 260.845 825.779 261.511 829.31 262.598C833.332 264.116 836.907 266.623 839.704 269.888C842.501 273.153 844.429 277.07 845.312 281.278C846.119 285.499 845.995 289.844 844.949 294.012C843.902 298.18 841.959 302.069 839.255 305.408C836.017 309.44 831.842 312.619 827.094 314.667C825.963 315.201 824.667 315.267 823.488 314.85C820.53 313.674 821.014 310.011 822.362 307.567C823.805 304.953 826.025 302.421 824.865 299.239C824.283 297.763 823.167 296.561 821.738 295.873C818.798 294.373 815.51 294.728 812.349 295.093L812.266 295.103Z" fill="white"/>
<path d="M665.433 308.973H361.433C357.059 308.968 352.865 307.228 349.771 304.134C346.678 301.041 344.938 296.847 344.933 292.473V227.473C344.938 223.098 346.678 218.904 349.771 215.811C352.865 212.718 357.059 210.978 361.433 210.973H665.433C669.808 210.978 674.002 212.718 677.095 215.811C680.188 218.904 681.928 223.098 681.933 227.473V292.473C681.928 296.847 680.188 301.041 677.095 304.134C674.002 307.228 669.808 308.968 665.433 308.973V308.973Z" fill="white"/>
<path d="M665.433 309.473H361.433C356.926 309.468 352.605 307.675 349.418 304.488C346.231 301.301 344.438 296.98 344.433 292.473V227.473C344.438 222.966 346.231 218.645 349.418 215.458C352.605 212.271 356.926 210.478 361.433 210.473H665.433C669.94 210.478 674.261 212.271 677.448 215.458C680.635 218.645 682.428 222.966 682.433 227.473V292.473C682.428 296.98 680.635 301.301 677.448 304.488C674.261 307.675 669.94 309.468 665.433 309.473ZM361.433 212.473C357.456 212.477 353.644 214.059 350.831 216.871C348.019 219.683 346.438 223.496 346.433 227.473V292.473C346.438 296.45 348.019 300.262 350.831 303.074C353.644 305.886 357.456 307.468 361.433 307.473H665.433C669.41 307.468 673.223 305.886 676.035 303.074C678.847 300.262 680.429 296.45 680.433 292.473V227.473C680.429 223.496 678.847 219.683 676.035 216.871C673.223 214.059 669.41 212.477 665.433 212.473H361.433Z" fill="#3F3D56"/>
<path d="M628.433 292.973H398.433C394.059 292.968 389.865 291.228 386.771 288.135C383.678 285.041 381.938 280.847 381.933 276.473V242.473C381.938 238.098 383.678 233.904 386.771 230.811C389.865 227.718 394.059 225.978 398.433 225.973H628.433C632.808 225.978 637.002 227.718 640.095 230.811C643.188 233.904 644.928 238.098 644.933 242.473V276.473C644.928 280.847 643.188 285.041 640.095 288.135C637.002 291.228 632.808 292.968 628.433 292.973V292.973Z" fill="#F2F2F2"/>
<path d="M447.928 274.647C458.826 274.647 467.66 265.813 467.66 254.915C467.66 244.017 458.826 235.183 447.928 235.183C437.03 235.183 428.196 244.017 428.196 254.915C428.196 265.813 437.03 274.647 447.928 274.647Z" fill="#FF6584"/>
<path d="M614.14 290.981L586.288 267.622L558.916 244.665C558.194 244.06 557.28 243.728 556.338 243.73C555.395 243.732 554.483 244.067 553.763 244.675L526.48 267.737L519.816 273.37L509.768 264.943L479.23 239.332C478.508 238.726 477.595 238.395 476.652 238.397C475.71 238.399 474.798 238.733 474.078 239.342L443.64 265.07L412.723 291.204C412.566 291.336 412.454 291.514 412.402 291.712C412.349 291.91 412.359 292.12 412.43 292.312C412.5 292.505 412.629 292.671 412.797 292.788C412.965 292.905 413.165 292.968 413.371 292.968L476.757 292.845L496.821 292.807L496.625 292.973L556.433 292.858L613.499 292.748C613.705 292.747 613.905 292.684 614.072 292.566C614.24 292.448 614.368 292.281 614.438 292.089C614.508 291.896 614.517 291.686 614.463 291.488C614.41 291.29 614.297 291.113 614.14 290.981Z" fill="#DAB410"/>
<path d="M875.272 661.473H683.272C683.006 661.473 682.752 661.367 682.565 661.18C682.377 660.992 682.272 660.738 682.272 660.473C682.272 660.208 682.377 659.953 682.565 659.766C682.752 659.578 683.006 659.473 683.272 659.473H875.272C875.537 659.473 875.791 659.578 875.979 659.766C876.166 659.953 876.272 660.208 876.272 660.473C876.272 660.738 876.166 660.992 875.979 661.18C875.791 661.367 875.537 661.473 875.272 661.473Z" fill="#CCCCCC"/>
<path d="M196.61 332.473H153.61C151.092 332.47 148.677 331.468 146.896 329.687C145.115 327.906 144.113 325.491 144.11 322.973V279.973C144.113 277.454 145.115 275.039 146.896 273.258C148.677 271.477 151.092 270.476 153.61 270.473H196.61C199.129 270.476 201.544 271.477 203.325 273.258C205.106 275.039 206.107 277.454 206.11 279.973V322.973C206.107 325.491 205.106 327.906 203.325 329.687C201.544 331.468 199.129 332.47 196.61 332.473V332.473Z" fill="white"/>
<path d="M196.61 332.473H153.61C151.092 332.47 148.677 331.468 146.896 329.687C145.115 327.906 144.113 325.491 144.11 322.973V279.973C144.113 277.454 145.115 275.039 146.896 273.258C148.677 271.477 151.092 270.476 153.61 270.473H196.61C199.129 270.476 201.544 271.477 203.325 273.258C205.106 275.039 206.107 277.454 206.11 279.973V322.973C206.107 325.491 205.106 327.906 203.325 329.687C201.544 331.468 199.129 332.47 196.61 332.473V332.473ZM153.61 272.473C151.622 272.475 149.715 273.266 148.309 274.672C146.903 276.078 146.112 277.984 146.11 279.973V322.973C146.112 324.961 146.903 326.868 148.309 328.274C149.715 329.68 151.622 330.471 153.61 330.473H196.61C198.599 330.471 200.505 329.68 201.911 328.274C203.317 326.868 204.108 324.961 204.11 322.973V279.973C204.108 277.984 203.317 276.078 201.911 274.672C200.505 273.266 198.599 272.475 196.61 272.473H153.61Z" fill="#3F3D56"/>
<path d="M189.11 314.973H161.11C160.315 314.972 159.552 314.656 158.99 314.093C158.427 313.531 158.111 312.768 158.11 311.973V290.973C158.111 290.177 158.427 289.415 158.99 288.852C159.552 288.29 160.315 287.974 161.11 287.973H168.993C169.505 287.971 170.01 288.101 170.457 288.351C170.905 288.601 171.28 288.962 171.548 289.4L173.746 292.973H189.11C189.906 292.974 190.668 293.29 191.231 293.852C191.793 294.415 192.109 295.177 192.11 295.973V311.973C192.109 312.768 191.793 313.531 191.231 314.093C190.668 314.656 189.906 314.972 189.11 314.973V314.973Z" fill="#DAB410"/>
</g>
<defs>
<clipPath id="clip0">
<rect width="876.272" height="661.473" fill="white"/>
</clipPath>
</defs>
</svg>
