<svg xmlns="http://www.w3.org/2000/svg" width="965.4000000000001" height="131.5999999999999" fill="none" style=""><rect id="backgroundrect" width="100%" height="100%" x="0" y="0" fill="none" stroke="none" class="" style=""/>

<defs>
<clipPath id="clip0">
<rect width="980" height="518" fill="white" id="svg_1"/>
</clipPath>
</defs>
<g class="currentLayer" style=""><title>Layer 1</title><g clip-path="url(#clip0)" id="svg_2" class="">
<rect width="1015" height="88.89430236816406" fill="white" y="53.971500396728516" x="0" id="svg_3"/>
<path d="M164.653 -418.014C135.637 -418.064 106.887 -412.478 79.993 -401.564C78.9102 -401.119 77.823 -400.673 76.7364 -400.216C35.8649 -382.937 0.993069 -353.956 -23.5088 -316.907C-48.0107 -279.857 -61.0525 -236.386 -60.9998 -191.942V54.7428C-60.9969 57.348 -59.9626 59.8456 -58.1239 61.6878C-56.2851 63.53 -53.7921 64.5662 -51.1917 64.5692L-50.9969 64.5862C138.046 98.9806 231 157.681 495.396 116.409C518 111.647 495.396 116.409 522 110.589C685.805 69.3281 838.5 61.6878 996.963 64.5937L997.192 64.5692C999.792 64.5663 1002.29 63.5301 1004.12 61.6879C1005.96 59.8458 1007 57.3481 1007 54.7428V-408.188C1007 -410.793 1005.96 -413.291 1004.12 -415.133C1002.29 -416.975 999.792 -418.011 997.192 -418.014L164.653 -418.014Z" fill="#0B173D" id="svg_4"/>
</g></g></svg>