<svg data-v-423bf9ae="" xmlns="http://www.w3.org/2000/svg" viewBox="0 0 467 90" class="iconLeft"><!----><!----><!----><g data-v-423bf9ae="" id="9cb084d0-0423-4d52-8dba-6864dc46e0a0" fill="#FFFFFF" transform="matrix(4.285714577655423,0,0,4.285714577655423,114.49807792342372,2.9999996253421912)"><path d="M6.41 5.49L6.41 4.20L1.16 4.20L1.16 14L2.49 14L2.49 10.01L5.28 10.01L5.28 8.72L2.49 8.72L2.49 5.49ZM8.46 5.68C8.97 5.68 9.35 5.29 9.35 4.77C9.35 4.28 8.97 3.89 8.46 3.89C7.94 3.89 7.56 4.28 7.56 4.77C7.56 5.29 7.94 5.68 8.46 5.68ZM7.80 14L9.11 14L9.11 7L7.80 7ZM11.44 14L12.75 14L12.75 2.80L11.44 2.80ZM14.84 14L16.16 14L16.16 2.80L14.84 2.80ZM28.04 4.20L21.81 4.20L21.81 5.50L24.29 5.50L24.29 14L25.62 14L25.62 5.50L28.04 5.50ZM32.42 6.86C31.44 6.86 30.70 7.34 30.30 7.99L30.30 2.80L28.98 2.80L28.98 14L30.30 14L30.30 10.12L30.31 10.18C30.31 8.79 31.04 8.06 32.02 8.06C33.01 8.06 33.73 8.79 33.73 10.18L33.73 14L35.04 14L35.04 9.98C35.04 7.90 33.80 6.86 32.42 6.86ZM39.91 6.90C37.86 6.90 36.48 8.55 36.48 10.50C36.48 12.46 37.83 14.11 40.05 14.11C41.01 14.11 41.85 13.85 42.43 13.41L42.43 12.08C41.76 12.54 41.05 12.84 40.12 12.84C38.92 12.84 38.05 12.14 37.84 11.03L43.19 11.03C43.34 8.82 42.10 6.90 39.91 6.90ZM39.89 8.22C40.89 8.22 41.61 8.92 41.80 9.94L37.86 9.94C38.07 8.93 38.82 8.22 39.89 8.22ZM54.28 8.79L54.28 10.08L56.80 10.08L56.80 12.15C56.14 12.60 55.26 12.85 54.32 12.85C52.14 12.85 50.64 11.13 50.64 9.10C50.64 7.06 52.14 5.35 54.32 5.35C55.45 5.35 56.36 5.75 57.04 6.44L57.93 5.49C57.06 4.59 55.82 4.03 54.31 4.03C51.25 4.03 49.28 6.38 49.28 9.10C49.28 11.82 51.25 14.17 54.31 14.17C55.89 14.17 57.26 13.62 58.13 12.71L58.13 8.79ZM65.20 7L65.20 8.12C64.65 7.39 63.84 6.90 62.80 6.90C60.86 6.90 59.53 8.48 59.53 10.50C59.53 12.52 60.86 14.10 62.80 14.10C63.84 14.10 64.65 13.61 65.20 12.88L65.20 14L66.51 14L66.51 7ZM63.03 12.82C61.77 12.82 60.89 11.79 60.89 10.50C60.89 9.23 61.77 8.19 63.03 8.19C64.29 8.19 65.20 9.27 65.20 10.50C65.20 11.73 64.29 12.82 63.03 12.82ZM72.31 6.90C71.27 6.90 70.46 7.39 69.92 8.12L69.92 7L68.60 7L68.60 16.80L69.92 16.80L69.92 12.88C70.46 13.61 71.27 14.10 72.31 14.10C74.26 14.10 75.59 12.52 75.59 10.50C75.59 8.48 74.26 6.90 72.31 6.90ZM72.09 12.81C70.83 12.81 69.92 11.73 69.92 10.50C69.92 9.27 70.83 8.18 72.09 8.18C73.35 8.18 74.23 9.21 74.23 10.50C74.23 11.77 73.35 12.81 72.09 12.81ZM82.12 7L76.31 7L76.31 8.26L79.94 8.26L76.37 13.80L76.37 14L82.04 14L82.04 12.74L78.54 12.74L82.12 7.17Z"></path></g><!----><g data-v-423bf9ae="" id="53c4a5bd-34f4-4559-9e5b-eff635d0174b" transform="matrix(1.1910827517415443,0,0,1.1910827517415443,-6.948852579203347,-13.211674387688205)" stroke="none" fill="#fd4444"><path d="M79.284 11.575l-26.694.3a9.885 9.885 0 0 0-5.169 1.534l-12.344 3.357a2.174 2.174 0 0 0-.137.043l-4.215 1.464-.002-.004-.022.012-.485.168a9.884 9.884 0 0 0-3.228 1.867l-3.631 1.99-2.49 1.387-.04-.054-.396.297-1.217.677a9.873 9.873 0 0 0-2.794 2.325l-6.303 4.717a9.81 9.81 0 0 0-3.7 6.661 9.806 9.806 0 0 0 2.051 7.194l25.596 37.792c.029.043.062.086.095.128a9.868 9.868 0 0 0 7.986 3.702 9.82 9.82 0 0 0 5.864-2.131l7.094-5.229 8.012-1.512 4.088-.767-.021.32 12.929.358.154-.004c5.361-.141 9.66-5.125 9.6-10.491l-.585-46.082c-.061-5.447-4.549-10.079-9.996-10.019zM28.346 24.97a5.771 5.771 0 0 1 1.015-1.341l2.988-1.638 1.491-.518a9.888 9.888 0 0 0-.666 5.776l7.825 45.08-13.03-42.562-.023-.072a5.843 5.843 0 0 1 .4-4.725zm14.476-3.104l.508 40.243-6.174-35.565-.006-.03a5.853 5.853 0 0 1 1.065-4.58 5.815 5.815 0 0 1 3.586-2.234l1.286-.242a9.896 9.896 0 0 0-.265 2.408zm-19.188 4.917a9.842 9.842 0 0 0 .479 4.202l13.082 42.733-18.217-37.533a3.212 3.212 0 0 0-.053-.101 5.835 5.835 0 0 1 .355-6.233l3.356-2.512.998-.556zM11.679 43.051a5.785 5.785 0 0 1-1.241-4.287 5.793 5.793 0 0 1 2.131-3.891l1.59-1.189a9.85 9.85 0 0 0 1.204 4.314l17.951 36.985-21.54-31.803a3.06 3.06 0 0 0-.095-.129zm74.128 24.173c.035 3.168-2.51 5.813-5.675 5.896l-26.788.304a5.843 5.843 0 0 1-5.899-5.771l-.578-45.834a5.774 5.774 0 0 1 1.154-3.547 5.777 5.777 0 0 1 4.522-2.35l26.787-.302a5.84 5.84 0 0 1 5.899 5.771l.578 45.833z"></path></g><!----></svg>